<?xml version="1.0" standalone="no"?><!DOCTYPE svg PUBLIC "-//W3C//DTD SVG 1.1//EN" "http://www.w3.org/Graphics/SVG/1.1/DTD/svg11.dtd"><svg t="1495251187683" class="icon" style="" viewBox="0 0 1024 1024" version="1.1" xmlns="http://www.w3.org/2000/svg" p-id="4642" xmlns:xlink="http://www.w3.org/1999/xlink" width="64" height="64"><defs><style type="text/css"></style></defs><path d="M584.762411 609.524053l0.276449 250.529381-11.678436 0.013311-0.276449-250.529381z" fill="" p-id="4643"></path><path d="M661.164734 865.92644H495.082343c-2.922169 0-5.553554-1.264498-7.221463-3.469947s-2.166541-5.082567-1.370983-7.894156l0.059385-0.198634 84.895452-263.595181c1.495896-5.24946 5.47881-5.678468 6.680852-5.678468h0.009215c1.190779 0.002048 5.189051 0.434127 6.721807 5.887341L669.697794 854.363703c0.854944 3.009199 0.356312 5.887341-1.311597 8.09279s-4.299294 3.469947-7.221463 3.469947z m-162.307326-11.678436h158.53738l-79.273298-246.110291-79.264082 246.110291z m80.258275-262.077783l-5.517718 1.914665c0.027645 0.078839 0.063481 0.162798 0.111604 0.251876l5.406114-2.166541z" fill="" p-id="4644"></path><path d="M247.534516 861.268786h-18.217991" fill="#FEDEBB" p-id="4645"></path><path d="M247.534516 868.275233h-18.216968a7.006447 7.006447 0 1 1 0-14.012894h18.216968a7.006447 7.006447 0 1 1 0 14.012894z" fill="" p-id="4646"></path><path d="M325.918057 861.268786h-38.640408" fill="#FEDEBB" p-id="4647"></path><path d="M325.918057 868.275233h-38.640408a7.006447 7.006447 0 1 1 0-14.012894h38.640408a7.006447 7.006447 0 1 1 0 14.012894z" fill="" p-id="4648"></path><path d="M808.357464 861.268786h-429.448222" fill="#FEDEBB" p-id="4649"></path><path d="M808.357464 868.275233h-429.448222a7.006447 7.006447 0 1 1 0-14.012894h429.448222a7.006447 7.006447 0 1 1 0 14.012894z" fill="" p-id="4650"></path><path d="M882.877886 861.268786h-23.18486" fill="#FEDEBB" p-id="4651"></path><path d="M882.877886 868.275233h-23.18486a7.006447 7.006447 0 1 1 0-14.012894h23.18486a7.006447 7.006447 0 1 1 0 14.012894z" fill="" p-id="4652"></path><path d="M543.451709 575.369287h71.559346v60.684659h-71.559346z" fill="#FCD22E" p-id="4653"></path><path d="M610.310397 644.572672h-62.730382c-5.008847 0-9.084934-4.077111-9.084934-9.088006v-51.852625c0-5.010895 4.076087-9.086982 9.084934-9.086982h62.730382c5.010895 0 9.08903 4.076087 9.08903 9.086982v51.852625c0.001024 5.010895-4.077111 9.088006-9.08903 9.088006z m-62.472363-9.34193h62.219464v-51.342729h-62.219464v51.342729z" fill="" p-id="4654"></path><path d="M463.204697 396.466828c-16.983186 45.728766-68.281888 68.857312-114.571744 51.662182-46.301118-17.193082-70.065497-68.201001-53.084358-113.927721 16.983186-45.728766 68.279841-68.857312 114.576863-51.662181 46.301118 17.196154 70.060377 68.203049 53.079239 113.92772z" fill="#43B8FC" p-id="4655"></path><path d="M397.865455 336.948374c33.074568 21.813877 47.047531 61.549842 37.442463 97.438047 7.203033-5.65799 13.653511-12.499592 18.967475-20.55245 26.861631-40.715824 15.208793-95.767066-26.010783-122.962485-41.22879-27.194394-96.416209-16.236773-123.279888 24.481099-5.311917 8.051834-9.059337 16.677044-11.43168 25.522389 29.217592-22.953461 71.241941-25.743549 104.312413-3.9266z" fill="#2C8BFB" p-id="4656"></path><path d="M340.292383 471.113187a96.875934 96.875934 0 0 1-15.085926-4.258339c-49.238645-18.285568-74.595165-72.760363-56.521542-121.431775 18.077719-48.671413 72.85456-73.384933 122.082967-55.100389 23.842194 8.853536 42.852673 26.351737 53.531796 49.271409 10.688339 22.943222 11.751132 48.571072 2.989746 72.160367-5.142976 13.864431-13.239861 25.969827-24.065401 35.980354l-7.927944-8.574016c9.46582-8.753196 16.544963-19.34017 21.045963-31.470139 7.665829-20.642552 6.73307-43.073832-2.62729-63.16451-9.371622-20.117299-26.06812-35.47865-47.010671-43.255059-43.208985-16.049402-91.236374 5.584271-107.069736 48.218855s6.436143 90.374262 49.640008 106.418545a85.284528 85.284528 0 0 0 13.267506 3.746397l-2.249476 11.4583z" fill="" p-id="4657"></path><path d="M565.133505 541.150015l-15.006063 40.404563c-4.988369 13.42928 1.854256 28.350361 15.281488 33.334634 13.420065 4.994513 28.348313-1.854256 33.336682-15.275345l15.006064-40.407634-48.618171-18.056218z" fill="#DFC93D" p-id="4658"></path><path d="M585.857968 588.375702c-1.913642 5.139904-7.632041 7.762075-12.782184 5.856624-5.13888-1.914666-7.760027-7.632041-5.852529-12.782184 1.913642-5.149119 7.632041-7.772314 12.782184-5.855601 5.148095 1.914666 7.770266 7.632041 5.852529 12.781161z" fill="" p-id="4659"></path><path d="M568.336218 542.355128l42.286464 15.708449-4.775401 12.855904-42.286464-15.707425z" fill="#D1872C" p-id="4660"></path><path d="M360.12197 582.110548a4.088374 4.088374 0 0 1-4.089398-4.09247v-4.088374a4.46414 4.46414 0 1 0-8.929304 0v4.088374a4.088374 4.088374 0 0 1-4.08735 4.09247h-4.091446a4.459021 4.459021 0 0 0-4.461068 4.463116 4.459021 4.459021 0 0 0 4.461068 4.463116h4.091446a4.088374 4.088374 0 0 1 4.08735 4.09247v4.091445a4.468236 4.468236 0 0 0 4.468236 4.463116 4.462092 4.462092 0 0 0 4.461068-4.463116v-4.091445a4.088374 4.088374 0 0 1 4.089398-4.09247h4.094518a4.461068 4.461068 0 0 0 4.463116-4.463116 4.462092 4.462092 0 0 0-4.463116-4.463116h-4.094518z" fill="#2BA9FC" p-id="4661"></path><path d="M635.911626 276.405011a3.935815 3.935815 0 0 1-3.934791-3.93172v-3.942982a4.291103 4.291103 0 0 0-4.294175-4.287008 4.282912 4.282912 0 0 0-4.285984 4.287008v3.942982a3.933767 3.933767 0 0 1-3.934792 3.93172h-3.931719a4.29008 4.29008 0 0 0-4.295199 4.289055 4.294175 4.294175 0 0 0 4.295199 4.295199h3.931719a3.93172 3.93172 0 0 1 3.934792 3.930696v3.93172a4.285984 4.285984 0 0 0 4.285984 4.291103 4.292127 4.292127 0 0 0 4.294175-4.291103v-3.93172a3.932744 3.932744 0 0 1 3.934791-3.930696h3.934791a4.292127 4.292127 0 1 0 0-8.584254h-3.934791z" fill="#FD5C1E" p-id="4662"></path><path d="M180.132145 390.19553a5.472667 5.472667 0 0 1-5.480858-5.47881v-5.480858a5.982562 5.982562 0 0 0-5.980514-5.977443 5.97949 5.97949 0 0 0-5.975395 5.977443v5.480858a5.475739 5.475739 0 0 1-5.485977 5.47881h-5.478811a5.97949 5.97949 0 0 0-5.975395 5.988705 5.973347 5.973347 0 0 0 5.975395 5.974371h5.478811a5.476763 5.476763 0 0 1 5.485977 5.479834v5.485978a5.975395 5.975395 0 0 0 5.975395 5.972323 5.97949 5.97949 0 0 0 5.980514-5.972323v-5.485978a5.473691 5.473691 0 0 1 5.480858-5.479834h5.478811a5.973347 5.973347 0 0 0 5.975394-5.974371 5.97949 5.97949 0 0 0-5.975394-5.988705h-5.478811z" fill="#FED62C" p-id="4663"></path><path d="M376.005503 172.880989a7.706785 7.706785 0 1 1-7.708832-7.703713c4.251172 0 7.708833 3.455613 7.708832 7.703713z" fill="#FDD72C" p-id="4664"></path><path d="M80.144624 220.082103a7.706785 7.706785 0 1 1-7.708833-7.704737c4.251172 0 7.708833 3.457661 7.708833 7.704737z" fill="#FD5C1E" p-id="4665"></path><path d="M533.858928 209.620043a7.704737 7.704737 0 1 1-15.409474 0 7.706785 7.706785 0 0 1 7.708832-7.703714c4.242981 0.001024 7.700642 3.456637 7.700642 7.703714z" fill="#53B5F1" p-id="4666"></path><path d="M189.605132 196.461068c-9.48425 0-17.197178-7.713952-17.197178-17.19513 0-9.48425 7.713952-17.20025 17.197178-17.200249 9.481178 0 17.19513 7.716 17.19513 17.200249 0 9.481178-7.713952 17.19513-17.19513 17.19513z m0-29.724415c-6.906107 0-12.526213 5.620107-12.526213 12.528261 0 6.905083 5.620107 12.524165 12.526213 12.524166s12.524165-5.619083 12.524166-12.524166c0-6.908154-5.618059-12.528261-12.524166-12.528261z" fill="#2BA9FC" p-id="4667"></path><path d="M796.850017 594.179084L427.046187 456.84125l47.145823-126.953589 369.813045 137.346025z" fill="#F5D72E" p-id="4668"></path><path d="M457.818036 374.079575l17.426529-46.912378 369.796662 137.361384-17.426528 46.912378z" fill="#ED8824" p-id="4669"></path><path d="M423.003888 273.171581l63.470651 23.56984-69.173693 186.282624-63.471675-23.56984z" fill="#F5D72E" p-id="4670"></path><path d="M406.122066 318.723215l17.421409-46.920569 63.475771 23.568816-17.421409 46.920569z" fill="#ED8824" p-id="4671"></path><path d="M902.28256 606.265026l-96.591293-35.867726 28.850016-77.689347 96.592318 35.874894z" fill="#F5D72E" p-id="4672"></path><path d="M936.774185 606.410418l-30.360247-11.271954 18.139152-48.831138 30.360248 11.274001z" fill="#F5D72E" p-id="4673"></path><path d="M923.89166 624.846497a9.050122 9.050122 0 0 1-3.179164-0.579519l-22.073944-8.191083c-4.700658-1.756987-7.095525-6.99928-5.346729-11.686627l15.056234-40.547906a9.02043 9.02043 0 0 1 4.73035-5.096901 9.025549 9.025549 0 0 1 6.945014-0.262115l22.085207 8.203369a9.014286 9.014286 0 0 1 5.097925 4.729327 9.036812 9.036812 0 0 1 0.262115 6.946038l-15.062378 40.559169a9.040907 9.040907 0 0 1-4.739565 5.097925 9.046027 9.046027 0 0 1-3.775065 0.828323z m-21.754491-17.436767l21.601932 8.015998 14.880126-40.069752-21.601933-8.023165-14.880125 40.076919z" fill="" p-id="4674"></path><path d="M824.529733 519.777433l10.664789-28.709745 96.587198 35.876942-10.663765 28.709745z" fill="#ED8824" p-id="4675"></path><path d="M403.296143 505.688771c-1.206137 0-2.415345-0.21604-3.578479-0.64812l-55.189467-20.49716a10.181516 10.181516 0 0 1-5.752188-5.339562 10.183563 10.183563 0 0 1-0.293855-7.845009l66.110228-178.006559c1.973027-5.302702 7.886989-8.012927 13.183547-6.041948l55.196634 20.498184c5.300654 1.970979 8.009855 7.883917 6.043995 13.1815L412.905307 498.999728a10.189707 10.189707 0 0 1-5.343658 5.752188 10.231686 10.231686 0 0 1-4.265506 0.936855z m-53.37207-31.597101l52.528388 19.508087 65.121155-175.338314-52.528389-19.507063-65.121154 175.33729z" fill="" p-id="4676"></path><path d="M782.426544 617.929128c-1.202041 0-2.406131-0.213992-3.567216-0.644024l-0.004096-0.001024-361.527765-134.271297a10.171277 10.171277 0 0 1-5.752187-5.337515 10.171277 10.171277 0 0 1-0.28976-7.851152l44.075192-118.668309a10.175372 10.175372 0 0 1 5.328299-5.749117 10.189707 10.189707 0 0 1 7.851153-0.296926l361.53186 134.272321c5.293487 1.962788 8.009855 7.872654 6.05321 13.173309l-44.088502 118.680596a10.168205 10.168205 0 0 1-5.337514 5.751163 10.218376 10.218376 0 0 1-4.272674 0.941975zM422.726415 472.560961l358.856448 133.278129 43.092261-116.002112-358.860543-133.280176-43.088166 116.004159z" fill="" p-id="4677"></path><path d="M491.190555 510.032092a6.545699 6.545699 0 0 1-2.266882-0.429008l-74.877758-27.807701c-2.370295-0.883613-5.873006-3.609196-2.759371-11.970243l44.075191-118.66831c3.078823-8.341594 7.502008-8.143984 9.871279-7.270609l74.89414 27.812821c2.894524 1.099653 5.68154 4.05049 2.76449 11.955909l-8.265826 22.259267a5.841266 5.841266 0 0 1-7.506103 3.442302 5.838194 5.838194 0 0 1-3.442303-7.506103l7.76617-20.917977-65.632073-24.373591-43.085094 116.002112 65.634121 24.376662 22.051418-59.385349a5.839218 5.839218 0 0 1 10.948406 4.063801l-22.545955 60.720495c-2.238213 6.012255-5.110212 7.695522-7.62385 7.695522zM888.329051 628.748524a10.233734 10.233734 0 0 1-3.580527-0.651191l-88.308061-32.799142a10.162062 10.162062 0 0 1-5.748093-5.329324 10.197898 10.197898 0 0 1-0.296926-7.852176l25.780408-69.406115c1.970979-5.302702 7.886989-8.011903 13.1815-6.043995l88.319324 32.801191a10.183563 10.183563 0 0 1 5.757307 5.350824 10.175372 10.175372 0 0 1 0.276449 7.843986l-25.769145 69.390756a10.205065 10.205065 0 0 1-5.357992 5.762427 10.250116 10.250116 0 0 1-4.254244 0.932759z m-86.487593-43.902155l85.645959 31.811093 24.784169-66.739917-85.641865-31.806997-24.788263 66.735821zM578.134801 617.658822a36.911066 36.911066 0 0 1-12.886621-2.334458c-9.250804-3.432064-16.613563-10.263426-20.730606-19.238806-4.114995-8.974355-4.488713-19.01355-1.053578-28.267426l16.444622-44.261538 69.285296 25.736381-16.435407 44.255396c-3.437183 9.254899-10.272641 16.615611-19.24802 20.730606-4.908506 2.248452-10.134417 3.379845-15.375686 3.379845z m-11.347721-79.090022l-12.375702 33.314157a25.116931 25.116931 0 0 0 0.720815 19.334027 25.106692 25.106692 0 0 0 14.179788 13.161022c6.327611 2.351865 13.190715 2.099989 19.333003-0.714672 6.138193-2.814661 10.813253-7.851153 13.165117-14.180812l12.371607-33.30699-47.394628-17.606732z" fill="" p-id="4678"></path></svg>