<?xml version="1.0" standalone="no"?><!DOCTYPE svg PUBLIC "-//W3C//DTD SVG 1.1//EN" "http://www.w3.org/Graphics/SVG/1.1/DTD/svg11.dtd"><svg t="1495178854698" class="icon" style="" viewBox="0 0 1024 1024" version="1.1" xmlns="http://www.w3.org/2000/svg" p-id="1543" xmlns:xlink="http://www.w3.org/1999/xlink" width="128" height="128"><defs><style type="text/css"></style></defs><path d="M1007.736471 714.902588 898.56 216.696471c-1.505882-6.912-7.619765-11.836235-14.712471-11.836235l-57.404235 0 0-36.065882 15.179294-10.571294c4.065882-2.816 6.475294-7.424 6.475294-12.348235L848.097882 31.066353c0-8.327529-6.731294-15.058824-15.058824-15.058824l-207.209412 0c-8.327529 0-15.058824 6.731294-15.058824 15.058824l0 114.191059c0 5.059765 2.529882 9.758118 6.731294 12.559059l15.992471 10.586353 0 36.156235-118.016 0.135529-118.031059-0.135529 0-36.156235 15.992471-10.586353c4.216471-2.800941 6.746353-7.499294 6.746353-12.559059L420.186353 31.066353c0-8.327529-6.731294-15.058824-15.058824-15.058824l-207.209412 0c-8.327529 0-15.058824 6.731294-15.058824 15.058824l0 114.808471c0 4.924235 2.409412 9.547294 6.460235 12.348235l15.179294 10.571294 0 36.065882L147.109647 204.860235c-7.077647 0-13.191529 4.924235-14.712471 11.836235l-109.176471 498.191059c-0.240941 1.054118-0.346353 2.153412-0.346353 3.237647l0 230.475294c0 31.819294 25.916235 57.735529 57.750588 57.735529L332.348235 1006.336c31.834353 0 57.735529-25.916235 57.735529-57.735529L390.083765 661.097412l55.220706-26.051765c5.270588-2.469647 8.628706-7.800471 8.628706-13.613176l0-36.321882 61.048471 0 0.993882 0 61.048471 0 0 36.321882c0 5.827765 3.358118 11.143529 8.613647 13.613176l55.235765 26.051765 0 287.503059c0 31.819294 25.886118 57.735529 57.735529 57.735529l251.738353 0c31.819294 0 57.735529-25.916235 57.735529-57.735529L1008.082824 718.125176C1008.082824 717.040941 1007.977412 715.956706 1007.736471 714.902588z" p-id="1544" fill="#13227a"></path></svg>